<?xml version="1.0" encoding="UTF-8" standalone="no"?>
<svg
   width="72.749344"
   height="73.019997"
   viewBox="0 0 72.749344 73.019997"
   version="1.1"
   id="svg609"
   sodipodi:docname="img1.svg"
   inkscape:version="1.1.1 (3bf5ae0d25, 2021-09-20)"
   xmlns:inkscape="http://www.inkscape.org/namespaces/inkscape"
   xmlns:sodipodi="http://sodipodi.sourceforge.net/DTD/sodipodi-0.dtd"
   xmlns="http://www.w3.org/2000/svg"
   xmlns:svg="http://www.w3.org/2000/svg">
  <sodipodi:namedview
     id="namedview611"
     pagecolor="#ffffff"
     bordercolor="#666666"
     borderopacity="1.0"
     inkscape:pageshadow="2"
     inkscape:pageopacity="0.0"
     inkscape:pagecheckerboard="0"
     showgrid="false"
     inkscape:zoom="0.45014485"
     inkscape:cx="560.93055"
     inkscape:cy="163.28077"
     inkscape:window-width="1920"
     inkscape:window-height="1001"
     inkscape:window-x="-9"
     inkscape:window-y="-9"
     inkscape:window-maximized="1"
     inkscape:current-layer="Web_1280_1" />
  <defs
     id="defs99">
    <clipPath
       id="clip-path">
      <rect
         width="72.778999"
         height="73.019997"
         fill="none"
         id="rect17"
         x="0"
         y="0" />
    </clipPath>
    <clipPath
       id="clip-Web_1280_1">
      <rect
         width="1280"
         height="3177"
         id="rect96"
         x="0"
         y="0" />
    </clipPath>
  </defs>
  <g
     id="Web_1280_1"
     data-name="Web 1280 – 1"
     clip-path="url(#clip-Web_1280_1)"
     transform="translate(-77.20026,-649.24642)">
    <g
       id="Block_03">
      <g
         id="On_time_delivery_icon"
         transform="translate(77.20026,649.24642)"
         clip-path="url(#clip-path)"
         inkscape:transform-center-x="151.06262"
         inkscape:transform-center-y="-4.4428586">
        <path
           id="Path_1"
           data-name="Path 1"
           d="M 69.5,40.972 61.932,28.937 a 12.444,12.444 0 0 0 -9.2,-4.6 h -8.109 v -4.054 a 6.7,6.7 0 0 0 -6.761,-6.761 v 0 A 15.072,15.072 0 0 0 22.988,0 14.844,14.844 0 0 0 8.249,13.522 H 6.761 A 6.7,6.7 0 0 0 0,20.283 V 52.06 c 0,2.164 0,4.057 1.082,5.138 a 3.181,3.181 0 0 0 2.3,0.811 c 0.135,0 0.406,0 0.406,0.135 0.406,0.406 0.27,1.623 0.27,2.164 v 0.541 a 3.453,3.453 0 0 0 2.028,3.516 8.182,8.182 0 0 0 3.245,0.541 8.832,8.832 0 0 0 8.789,8.114 8.738,8.738 0 0 0 8.789,-8.113 h 20.148 a 8.832,8.832 0 0 0 8.789,8.113 8.738,8.738 0 0 0 8.789,-8.113 h 1.352 a 6.7,6.7 0 0 0 6.761,-6.761 V 51.384 A 17.617,17.617 0 0 0 69.5,40.972 Z M 59.768,30.425 67.34,42.46 a 15.439,15.439 0 0 1 1.217,2.164 H 56.793 A 3.984,3.984 0 0 1 52.736,40.567 V 27.044 a 9.984,9.984 0 0 1 7.032,3.381 z M 22.988,2.7 A 12.17,12.17 0 1 1 10.818,14.87 12.119,12.119 0 0 1 22.988,2.7 Z M 18.12,70.315 a 6.22,6.22 0 1 1 6.22,-6.22 6.2,6.2 0 0 1 -6.22,6.22 z m 0,-15.145 A 8.839,8.839 0 0 0 9.466,62.2 5.971,5.971 0 0 1 7.166,61.93 C 7.031,61.795 6.76,61.66 6.76,60.848 v -0.406 c 0,-1.217 0.135,-2.975 -1.082,-4.057 A 3.051,3.051 0 0 0 3.378,55.438 0.5,0.5 0 0 1 2.972,55.303 C 2.702,55.033 2.702,53.41 2.702,52.058 V 20.283 a 3.984,3.984 0 0 1 4.057,-4.057 h 1.49 A 14.844,14.844 0 0 0 22.988,29.749 15.072,15.072 0 0 0 37.862,16.227 v 0 a 3.984,3.984 0 0 1 4.057,4.057 V 62.2 H 26.774 A 8.863,8.863 0 0 0 18.12,55.171 Z m 38,15.145 a 6.22,6.22 0 1 1 6.22,-6.22 6.384,6.384 0 0 1 -6.223,6.22 z m 14.2,-12.17 A 3.984,3.984 0 0 1 66.259,62.2 H 64.771 A 9.1,9.1 0 0 0 56.117,55.168 8.839,8.839 0 0 0 47.463,62.2 h -2.7 V 27.044 h 5.409 v 13.523 a 6.7,6.7 0 0 0 6.761,6.761 h 12.841 a 15.859,15.859 0 0 1 0.676,4.057 v 6.761 z"
           fill="#ffffff" />
        <path
           id="Path_2"
           data-name="Path 2"
           d="m 14.352,19.227 a 1.228,1.228 0 0 0 0.947,-0.406 l 4.057,-4.057 a 1.228,1.228 0 0 0 0.406,-0.947 V 4.352 a 1.352,1.352 0 1 0 -2.7,0 v 8.925 l -3.651,3.651 a 1.307,1.307 0 0 0 0,1.893 1.228,1.228 0 0 0 0.941,0.406 z"
           transform="translate(4.579,1.057)"
           fill="#ffffff" />
      </g>
    </g>
  </g>
</svg>
