<?xml version="1.0" encoding="UTF-8" standalone="no"?>
<svg
   width="62.001186"
   height="64.385597"
   viewBox="0 0 62.001186 64.385597"
   version="1.1"
   id="svg609"
   sodipodi:docname="img2.svg"
   inkscape:version="1.1.1 (3bf5ae0d25, 2021-09-20)"
   xmlns:inkscape="http://www.inkscape.org/namespaces/inkscape"
   xmlns:sodipodi="http://sodipodi.sourceforge.net/DTD/sodipodi-0.dtd"
   xmlns="http://www.w3.org/2000/svg"
   xmlns:svg="http://www.w3.org/2000/svg">
  <sodipodi:namedview
     id="namedview611"
     pagecolor="#ffffff"
     bordercolor="#666666"
     borderopacity="1.0"
     inkscape:pageshadow="2"
     inkscape:pageopacity="0.0"
     inkscape:pagecheckerboard="0"
     showgrid="false"
     inkscape:zoom="0.72880595"
     inkscape:cx="54.19824"
     inkscape:cy="-110.45464"
     inkscape:window-width="1920"
     inkscape:window-height="1001"
     inkscape:window-x="-9"
     inkscape:window-y="-9"
     inkscape:window-maximized="1"
     inkscape:current-layer="Web_1280_1" />
  <defs
     id="defs99">
    <clipPath
       id="clip-Web_1280_1">
      <rect
         width="1280"
         height="3177"
         id="rect96"
         x="0"
         y="0" />
    </clipPath>
  </defs>
  <g
     id="Web_1280_1"
     data-name="Web 1280 – 1"
     clip-path="url(#clip-Web_1280_1)"
     transform="translate(-586.03841,-529.885)">
    <g
       id="Block_04">
      <path
         id="Path_3"
         data-name="Path 3"
         d="m 646.847,541.57 a 0.9,0.9 0 0 0 -0.238,-0.477 l -6.916,-8.823 a 6.853,6.853 0 0 0 -4.769,-2.385 h -35.77 a 6.418,6.418 0 0 0 -4.769,2.385 l -6.915,8.823 c -0.119,0.119 -0.119,0.238 -0.238,0.477 a 3.416,3.416 0 0 0 -1.193,2.623 v 46.5 a 3.513,3.513 0 0 0 3.577,3.577 h 54.846 a 3.513,3.513 0 0 0 3.577,-3.577 v -46.5 a 3.416,3.416 0 0 0 -1.192,-2.623 z m -11.923,-9.3 a 4.157,4.157 0 0 1 2.862,1.431 l 5.485,6.915 h -20.27 v -8.346 z m -14.308,0 v 21.461 a 1.126,1.126 0 0 1 -1.192,1.192 h -4.77 a 1.126,1.126 0 0 1 -1.192,-1.192 V 532.27 Z m -24.323,1.43 a 4.157,4.157 0 0 1 2.862,-1.431 h 11.922 v 8.346 h -20.269 z m 49.361,56.993 a 1.126,1.126 0 0 1 -1.192,1.192 h -54.846 a 1.126,1.126 0 0 1 -1.192,-1.192 v -46.5 a 1.126,1.126 0 0 1 1.192,-1.192 h 21.461 v 10.73 a 3.513,3.513 0 0 0 3.577,3.577 h 4.769 A 3.513,3.513 0 0 0 623,553.731 V 543 h 21.462 a 1.126,1.126 0 0 1 1.192,1.192 z"
         fill="#ffffff" />
      <path
         id="Path_4"
         data-name="Path 4"
         d="m 638.5,584.731 h -22.654 a 1.1925,1.1925 0 1 0 0,2.385 H 638.5 a 1.1925,1.1925 0 0 0 0,-2.385 z"
         fill="#ffffff" />
      <path
         id="Path_5"
         data-name="Path 5"
         d="m 634.57,566.012 a 1.153,1.153 0 0 0 -1.669,0 l -4.769,4.769 a 1.1801646,1.1801646 0 0 0 1.665,1.673 l 2.742,-2.742 v 10.25 a 1.1925,1.1925 0 0 0 2.385,0 v -10.254 l 2.746,2.746 a 1.288,1.288 0 0 0 0.835,0.358 1.082,1.082 0 0 0 0.835,-0.358 1.153,1.153 0 0 0 0,-1.669 z"
         fill="#ffffff" />
      <path
         id="Path_6"
         data-name="Path 6"
         d="m 616.681,572.454 2.742,-2.742 v 10.25 a 1.1925,1.1925 0 1 0 2.385,0 v -10.254 l 2.746,2.746 a 1.288,1.288 0 0 0 0.835,0.358 1.082,1.082 0 0 0 0.835,-0.358 1.153,1.153 0 0 0 0,-1.669 l -4.77,-4.773 a 1.153,1.153 0 0 0 -1.669,0 l -4.769,4.769 a 1.1801646,1.1801646 0 0 0 1.665,1.673 z"
         fill="#ffffff" />
    </g>
  </g>
</svg>
