<?xml version="1.0" encoding="UTF-8" standalone="no"?>
<svg
   width="65.070724"
   height="65.506706"
   viewBox="0 0 65.070724 65.506706"
   version="1.1"
   id="svg609"
   sodipodi:docname="img4.svg"
   inkscape:version="1.1.1 (3bf5ae0d25, 2021-09-20)"
   xmlns:inkscape="http://www.inkscape.org/namespaces/inkscape"
   xmlns:sodipodi="http://sodipodi.sourceforge.net/DTD/sodipodi-0.dtd"
   xmlns="http://www.w3.org/2000/svg"
   xmlns:svg="http://www.w3.org/2000/svg">
  <sodipodi:namedview
     id="namedview611"
     pagecolor="#ffffff"
     bordercolor="#666666"
     borderopacity="1.0"
     inkscape:pageshadow="2"
     inkscape:pageopacity="0.0"
     inkscape:pagecheckerboard="0"
     showgrid="false"
     inkscape:zoom="0.20526726"
     inkscape:cx="-202.17545"
     inkscape:cy="1829.3224"
     inkscape:window-width="1920"
     inkscape:window-height="1001"
     inkscape:window-x="-9"
     inkscape:window-y="-9"
     inkscape:window-maximized="1"
     inkscape:current-layer="Web_1280_1" />
  <defs
     id="defs99">
    <clipPath
       id="clip-Web_1280_1">
      <rect
         width="1280"
         height="3177"
         id="rect96"
         x="0"
         y="0" />
    </clipPath>
  </defs>
  <g
     id="Web_1280_1"
     data-name="Web 1280 – 1"
     clip-path="url(#clip-Web_1280_1)"
     transform="translate(-598.4443,-431.17311)">
    <g
       id="Block_06"
       transform="translate(-617.57898,-88.860285)">
      <path
         id="Path_13"
         data-name="Path 13"
         d="m 1266.998,573.622 -11.544,-7.9 a 3.794,3.794 0 0 0 -5.1,0.851 l -3.041,4.254 a 1.1,1.1 0 0 0 -0.365,0.851 3.778,3.778 0 0 1 -2.066,0.608 c -1.7,0 -4.5,-0.851 -8.627,-4.982 -6.8,-6.8 -6.8,-9.721 -5.954,-12.03 a 2.656,2.656 0 0 0 0.608,-0.365 l 4.131,-3.159 a 3.8,3.8 0 0 0 0.729,-5.225 l -8.263,-11.3 q -2.552,-3.464 -5.833,-0.73 a 22.906,22.906 0 0 0 -4.253,5.346 4.334,4.334 0 0 0 -0.607,2.673 c -3.889,15.311 7.66,27.827 11.301,31.351 9.964,9.6 19.2,11.665 25.275,11.665 v 0 a 18.6,18.6 0 0 0 6.926,-1.094 5.1,5.1 0 0 0 2.552,-0.729 26.8,26.8 0 0 0 5.225,-4.5 4.1,4.1 0 0 0 1.094,-3.038 5.866,5.866 0 0 0 -2.188,-2.547 z m -0.972,4.253 a 20.626,20.626 0 0 1 -4.618,3.888 3.168,3.168 0 0 1 -1.337,0.365 1.541,1.541 0 0 0 -0.729,0.122 16.307,16.307 0 0 1 -6.2,0.972 v 0 c -5.59,0 -14.1,-1.944 -23.574,-10.936 C 1226.173,569.004 1215.355,557.218 1219,543 v -0.486 a 1.68,1.68 0 0 1 0.365,-1.458 23.945,23.945 0 0 1 3.767,-4.739 3.155,3.155 0 0 1 1.215,-0.486 c 0.365,0 0.851,0.486 1.094,0.851 l 8.262,11.299 a 1.218,1.218 0 0 1 -0.243,1.823 l -4.131,3.159 c -0.122,0 -0.122,0.122 -0.365,0.122 a 1.634,1.634 0 0 0 -0.851,0.729 c -1.7,3.767 -1.337,7.655 6.2,15.189 3.767,3.767 7.169,5.59 10.329,5.59 a 6.34,6.34 0 0 0 4.01,-1.337 1.05,1.05 0 0 0 0.365,-0.729 0.446,0.446 0 0 1 0.122,-0.365 l 3.034,-4.251 a 1.449,1.449 0 0 1 1.823,-0.243 l 11.544,7.9 a 1.982,1.982 0 0 1 0.972,1.094 c 0.121,0.362 -0.122,0.727 -0.486,1.213 z"
         fill="#ffffff" />
      <path
         id="Path_14"
         data-name="Path 14"
         d="m 1246.7,548.104 c -2.066,1.337 -4.5,2.795 -4.5,5.59 v 1.58 a 1.148,1.148 0 0 0 1.215,1.215 h 8.515 a 1.215,1.215 0 0 0 0,-2.43 h -7.291 v -0.365 c 0,-1.458 1.215,-2.309 3.281,-3.524 2.309,-1.458 5.225,-3.281 5.225,-7.048 a 4.5,4.5 0 0 0 -1.458,-3.524 6.5,6.5 0 0 0 -4.739,-1.34 6.351,6.351 0 0 0 -4.618,3.038 1.251,1.251 0 1 0 2.187,1.215 3.794,3.794 0 0 1 2.673,-1.823 3.367,3.367 0 0 1 2.795,0.729 2.039,2.039 0 0 1 0.729,1.7 c 10e-4,2.192 -1.457,3.407 -4.014,4.987 z"
         fill="#ffffff" />
      <path
         id="Path_15"
         data-name="Path 15"
         d="m 1263.352,539.598 a 1.371,1.371 0 0 0 -1.337,0.365 l -7.291,8.506 a 1.025,1.025 0 0 0 -0.243,0.851 v 1.215 a 1.148,1.148 0 0 0 1.215,1.215 h 6.076 v 3.64 a 1.215,1.215 0 1 0 2.43,0 v -3.641 h 1.215 a 1.215,1.215 0 0 0 0,-2.43 h -1.214 v -8.506 c -0.121,-0.607 -0.364,-1.093 -0.851,-1.215 z m -1.7,9.6 h -4.5 l 4.5,-5.225 z"
         fill="#ffffff" />
      <path
         id="Path_16"
         data-name="Path 16"
         d="m 1279.514,569.976 -4.131,1.337 a 33.15,33.15 0 0 0 5.711,-18.47 32.827,32.827 0 0 0 -32.809,-32.809 32.4,32.4 0 0 0 -22.6,8.992 1.2020815,1.2020815 0 0 0 1.7,1.7 30.431,30.431 0 0 1 51.278,22.117 30.81,30.81 0 0 1 -5.344,17.254 l -0.729,-4.131 a 1.2390617,1.2390617 0 1 0 -2.43,0.486 l 1.215,7.291 c 0,0.365 0.243,0.608 0.608,0.851 a 1.1,1.1 0 0 0 0.608,0.122 0.446,0.446 0 0 0 0.365,-0.122 l 7.291,-2.43 a 1.216,1.216 0 0 0 0.729,-1.58 1.076,1.076 0 0 0 -1.462,-0.608 z"
         fill="#ffffff" />
    </g>
  </g>
</svg>
